<svg xmlns="http://www.w3.org/2000/svg" version="1.1" xmlns:xlink="http://www.w3.org/1999/xlink" xmlns:svgjs="http://svgjs.dev/svgjs" width="1500" height="1682" viewBox="0 0 1500 1682"><g transform="matrix(1,0,0,1,-2.3364485981305734,0)"><svg viewBox="0 0 321 360" data-background-color="#ffffff" preserveAspectRatio="xMidYMid meet" height="1682" width="1500" xmlns="http://www.w3.org/2000/svg" xmlns:xlink="http://www.w3.org/1999/xlink"><g id="tight-bounds" transform="matrix(1,0,0,1,0.5,0)"><svg viewBox="0 0 320 360" height="360" width="320"><g><svg></svg></g><g><svg viewBox="0 0 320 360" height="360" width="320"><g><path d="M20.961 227.22l3.726 4.658-1.863-6.056c-0.466-2.795-3.726 0.466-1.863 1.398M25.153 224.425c1.397 2.329 2.795 4.658 2.795 6.987 0 3.261 2.795 4.658 5.123 5.589-3.261-3.726-5.124-13.974-7.918-12.576M204.017 26.929c7.918 0 15.371-0.932 23.756 0.931 20.495 5.124 37.729 15.371 49.374 29.811l32.606 52.169c1.397 13.042 4.192 27.482 3.726 43.319 3.261 0 2.795-4.658 6.521-5.59-3.726 9.316-5.59 20.961-6.521 34.469-2.329-7.453 0-18.632 0.466-24.687-3.261 5.124-5.124 1.397-5.124-0.932 0.466-3.726-1.397-3.261-2.795-4.658-5.124-4.658-8.384-9.782-12.11-17.7 2.329-6.055 2.795-14.905-4.658-19.563-2.329-1.397-5.124-3.726-6.521-7.453-1.863-5.124-5.124-11.179-4.193-19.097 0.466-2.329-6.987 5.124-11.179 1.863-18.166-12.576-36.332-27.016-58.224-39.127-11.645 0-20.029-4.192-24.221-9.316-3.726-4.658-0.932-10.713 4.658-11.179 3.261 0 6.987-0.932 9.782 0.932 0.466-1.863 2.329-4.192 4.657-4.192M157.904 16.215l0.932 0.466c4.658 0.932 6.987 7.453 12.11 5.124 0 3.261 0.466 6.521-0.466 8.85-1.397 3.726-5.59 3.726-8.85 3.726-31.208-1.863-49.374 11.179-68.471 22.358-5.124 3.261-10.713 5.59-14.906 9.782-20.029 18.632-41.921 35.866-47.045 70.335l-4.192 38.195c-0.466 4.192-5.124 8.384-4.192 13.508l3.26 22.824c-3.261-3.261-5.124 0.932-4.192 2.795 0.466 1.397 2.329 6.055 5.124 1.863 3.726 6.987 7.453 20.495 12.576 26.55 15.837 18.632 36.332 35.4 53.101 52.169 4.192-0.932 7.453-0.932 8.384-3.727 1.397 2.795-1.397 5.59-3.726 6.056 7.453 4.658 15.837 8.85 27.016 9.781 14.44 0.932 27.948 3.261 40.524 6.522 6.521-1.863 13.042-2.795 20.029-3.261 2.329 0 3.726-3.726 6.521-4.658l0.466-4.658c2.795 4.192 2.329-1.397 0.466-4.192 3.261 2.795 4.192 5.124 5.589 6.987 0-1.397 3.726-6.521 3.727-0.466l0.931-6.055c1.397-0.932 1.863 5.124 3.261 0.931 1.397-4.192 4.192-0.932 6.987-2.329-0.932 1.863-0.466 5.59 2.794 3.261l3.727-3.261c2.329 5.59 6.055 3.261 7.918 2.329 20.495-13.042 40.99-28.413 60.553-43.784l-0.466 6.055 2.329-7.453c2.329 2.329 4.192 0.466 5.124-0.931 2.795-4.658 6.521-9.316 12.577-13.508-7.453 20.029-16.303 35.866-27.482 48.908l-4.658 5.59c0 3.261-0.932 7.453-4.658 7.918-1.863 0.466-5.59-0.932-8.384 1.863-1.397 1.863 3.261 5.59-0.466 2.795-3.261-2.329-6.521 0-10.248 0.932-2.795 0.932 1.863 3.726 2.795 5.589 0.932 1.863 1.863 3.726 1.398 6.056l-5.124-5.59c-6.055 3.261-9.782 9.316-14.906 13.974-2.329 1.863-1.397 5.124-1.397 7.918-3.261 0-6.987-0.932-8.85 0.932-1.397 1.863-0.932 4.658-0.932 7.453-4.658-0.466-5.124-7.453-9.315-6.056-4.192 0.932-8.85 1.397-12.577 3.727 2.795 5.59-4.658 2.329-3.726 3.26-6.987-4.192-13.042-7.453-20.495-4.658-15.837-5.124-35.4-2.795-49.84-0.931 0-2.329 0.466-4.658-0.466-5.124-0.932 2.329-3.726 1.397-3.26 1.397-8.85-6.055-17.7-9.782-27.016-14.905-8.384 0.932-16.303-3.261-18.632-5.59-6.521-6.055-13.974-2.795-20.029-4.192-13.042-3.261-17.7-16.769-19.098-26.084-0.932-4.658-4.658-6.521-6.055-6.056-6.055-19.563-15.371-37.263-22.824-55.429-1.863-4.658-1.397-9.316-1.397-14.44 2.329 0.932 4.658 0.466 4.192-2.794-2.329-15.371-7.918-27.016-13.974-38.195 3.261-15.837 3.726-34.469 11.179-48.443 6.521-12.576 18.632-19.098 27.016-29.811 2.795-3.726 2.795-8.85 5.59-12.11 9.316-9.316 18.632-19.098 28.879-27.482 4.658-3.726 10.247 0 17.234-1.397 2.329-8.384 11.645-15.837 20.495-13.508 3.726 0.932 11.179-8.85 13.508-9.782 3.726-1.397 1.863 3.726 1.863 6.987 8.85-6.987 20.961-10.713 32.14-14.906" fill="#8789fe" fill-rule="nonzero" stroke="none" stroke-width="1" stroke-linecap="butt" stroke-linejoin="miter" stroke-miterlimit="10" stroke-dasharray="" stroke-dashoffset="0" font-family="none" font-weight="none" font-size="none" text-anchor="none" style="mix-blend-mode: normal" data-fill-palette-color="tertiary"></path></g><g transform="matrix(1,0,0,1,64,166.92741451709657)"><svg viewBox="0 0 192 26.14517096580684" height="26.14517096580684" width="192"><g><svg viewBox="0 0 192 26.14517096580684" height="26.14517096580684" width="192"><g><svg viewBox="0 0 192 26.14517096580684" height="26.14517096580684" width="192"><g><svg viewBox="0 0 192 26.14517096580684" height="26.14517096580684" width="192"><g id="textblocktransform"><svg viewBox="0 0 192 26.14517096580684" height="26.14517096580684" width="192" id="textblock"><g><svg viewBox="0 0 192 26.14517096580684" height="26.14517096580684" width="192"><g transform="matrix(1,0,0,1,0,0)"><svg width="192" viewBox="4.6 -33.45 250.03 34.050000000000004" height="26.14517096580684" data-palette-color="#8789fe"><path d="M22.8 0L4.6 0 4.6-32.85 8.3-32.85 8.3-3.15 22.8-3.15 22.8 0ZM35.3 0.6L35.3 0.6Q31.55 0.6 29.75-1.8 27.95-4.2 27.95-8.85L27.95-8.85 27.95-24.25 31.55-24.25 31.55-9.3Q31.55-5.8 32.7-4.17 33.85-2.55 36.4-2.55L36.4-2.55Q38.3-2.55 39.85-3.58 41.4-4.6 43.2-6.85L43.2-6.85 43.2-24.25 46.85-24.25 46.85 0 43.8 0 43.5-3.85 43.35-3.85Q41.65-1.85 39.75-0.63 37.85 0.6 35.3 0.6ZM60.8 0.6L60.8 0.6Q58.8 0.6 57.2-0.2 55.59-1 54.65-2.53 53.7-4.05 53.7-6.2L53.7-6.2Q53.7-10.2 57.32-12.33 60.95-14.45 68.8-15.3L68.8-15.3Q68.8-16.9 68.37-18.43 67.95-19.95 66.82-20.88 65.7-21.8 63.59-21.8L63.59-21.8Q61.4-21.8 59.52-20.95 57.65-20.1 56.25-19.15L56.25-19.15 54.8-21.65Q55.84-22.35 57.3-23.1 58.75-23.85 60.5-24.35 62.25-24.85 64.2-24.85L64.2-24.85Q67.09-24.85 68.92-23.6 70.75-22.35 71.57-20.15 72.4-17.95 72.4-15L72.4-15 72.4 0 69.4 0 69.09-2.95 68.95-2.95Q67.2-1.5 65.15-0.45 63.09 0.6 60.8 0.6ZM61.75-2.35L61.75-2.35Q63.59-2.35 65.25-3.23 66.9-4.1 68.8-5.75L68.8-5.75 68.8-12.85Q64.5-12.35 62-11.48 59.5-10.6 58.4-9.35 57.3-8.1 57.3-6.45L57.3-6.45Q57.3-4.3 58.62-3.33 59.95-2.35 61.75-2.35ZM83.94 0L80.34 0 80.34-24.25 83.34-24.25 83.64-20.65 83.79-20.65Q85.54-22.45 87.52-23.65 89.49-24.85 91.94-24.85L91.94-24.85Q95.79-24.85 97.57-22.45 99.34-20.05 99.34-15.4L99.34-15.4 99.34 0 95.69 0 95.69-14.95Q95.69-18.45 94.57-20.05 93.44-21.65 90.89-21.65L90.89-21.65Q88.94-21.65 87.42-20.68 85.89-19.7 83.94-17.75L83.94-17.75 83.94 0ZM126.79 0.6L126.79 0.6Q123.34 0.6 120.44-0.75 117.54-2.1 115.39-4.3L115.39-4.3 117.64-6.85Q119.44-4.95 121.81-3.8 124.19-2.65 126.84-2.65L126.84-2.65Q130.24-2.65 132.14-4.23 134.04-5.8 134.04-8.35L134.04-8.35Q134.04-10.1 133.29-11.18 132.54-12.25 131.29-12.98 130.04-13.7 128.44-14.4L128.44-14.4 123.69-16.5Q122.19-17.15 120.64-18.2 119.09-19.25 118.06-20.85 117.04-22.45 117.04-24.9L117.04-24.9Q117.04-27.4 118.36-29.33 119.69-31.25 121.96-32.35 124.24-33.45 127.14-33.45L127.14-33.45Q130.09-33.45 132.56-32.3 135.04-31.15 136.69-29.4L136.69-29.4 134.69-27.05Q133.24-28.5 131.36-29.35 129.49-30.2 127.14-30.2L127.14-30.2Q124.29-30.2 122.51-28.83 120.74-27.45 120.74-25.1L120.74-25.1Q120.74-23.45 121.59-22.4 122.44-21.35 123.71-20.68 124.99-20 126.24-19.45L126.24-19.45 130.99-17.35Q132.89-16.55 134.41-15.45 135.94-14.35 136.86-12.7 137.79-11.05 137.79-8.6L137.79-8.6Q137.79-6.05 136.46-3.95 135.14-1.85 132.66-0.63 130.19 0.6 126.79 0.6ZM149.49 0.6L149.49 0.6Q147.49 0.6 145.89-0.2 144.29-1 143.34-2.53 142.39-4.05 142.39-6.2L142.39-6.2Q142.39-10.2 146.01-12.33 149.64-14.45 157.49-15.3L157.49-15.3Q157.49-16.9 157.06-18.43 156.64-19.95 155.51-20.88 154.39-21.8 152.29-21.8L152.29-21.8Q150.09-21.8 148.21-20.95 146.34-20.1 144.94-19.15L144.94-19.15 143.49-21.65Q144.54-22.35 145.99-23.1 147.44-23.85 149.19-24.35 150.94-24.85 152.89-24.85L152.89-24.85Q155.79-24.85 157.61-23.6 159.44-22.35 160.26-20.15 161.09-17.95 161.09-15L161.09-15 161.09 0 158.09 0 157.79-2.95 157.64-2.95Q155.89-1.5 153.84-0.45 151.79 0.6 149.49 0.6ZM150.44-2.35L150.44-2.35Q152.29-2.35 153.94-3.23 155.59-4.1 157.49-5.75L157.49-5.75 157.49-12.85Q153.19-12.35 150.69-11.48 148.19-10.6 147.09-9.35 145.99-8.1 145.99-6.45L145.99-6.45Q145.99-4.3 147.31-3.33 148.64-2.35 150.44-2.35ZM172.63 0L169.03 0 169.03-24.25 172.03-24.25 172.33-20.65 172.48-20.65Q174.23-22.45 176.21-23.65 178.18-24.85 180.63-24.85L180.63-24.85Q184.48-24.85 186.26-22.45 188.03-20.05 188.03-15.4L188.03-15.4 188.03 0 184.38 0 184.38-14.95Q184.38-18.45 183.26-20.05 182.13-21.65 179.58-21.65L179.58-21.65Q177.63-21.65 176.11-20.68 174.58-19.7 172.63-17.75L172.63-17.75 172.63 0ZM203.53 0.6L203.53 0.6Q199.73 0.6 198.28-1.6 196.83-3.8 196.83-7.3L196.83-7.3 196.83-21.25 193.18-21.25 193.18-24 196.98-24.25 197.43-31.1 200.48-31.1 200.48-24.25 207.13-24.25 207.13-21.25 200.48-21.25 200.48-7.2Q200.48-4.95 201.31-3.68 202.13-2.4 204.33-2.4L204.33-2.4Q204.98-2.4 205.76-2.6 206.53-2.8 207.13-3.05L207.13-3.05 207.88-0.3Q206.88 0.05 205.71 0.33 204.53 0.6 203.53 0.6ZM221.98 0.6L221.98 0.6Q219.03 0.6 216.48-0.9 213.93-2.4 212.38-5.23 210.83-8.05 210.83-12.1L210.83-12.1Q210.83-16.1 212.38-18.98 213.93-21.85 216.48-23.35 219.03-24.85 221.98-24.85L221.98-24.85Q224.93-24.85 227.45-23.35 229.98-21.85 231.55-18.98 233.13-16.1 233.13-12.1L233.13-12.1Q233.13-8.05 231.55-5.23 229.98-2.4 227.45-0.9 224.93 0.6 221.98 0.6ZM221.98-2.45L221.98-2.45Q224.18-2.45 225.85-3.65 227.53-4.85 228.45-7.03 229.38-9.2 229.38-12.1L229.38-12.1Q229.38-14.95 228.45-17.15 227.53-19.35 225.85-20.58 224.18-21.8 221.98-21.8L221.98-21.8Q219.83-21.8 218.15-20.58 216.48-19.35 215.55-17.15 214.63-14.95 214.63-12.1L214.63-12.1Q214.63-9.2 215.55-7.03 216.48-4.85 218.15-3.65 219.83-2.45 221.98-2.45ZM245.93 0.6L245.93 0.6Q243.33 0.6 240.98-0.38 238.63-1.35 236.93-2.75L236.93-2.75 238.78-5.2Q240.33-3.95 242.05-3.1 243.78-2.25 246.08-2.25L246.08-2.25Q248.58-2.25 249.83-3.45 251.08-4.65 251.08-6.3L251.08-6.3Q251.08-7.6 250.23-8.47 249.38-9.35 248.1-9.98 246.83-10.6 245.43-11.1L245.43-11.1Q243.73-11.7 242.03-12.55 240.33-13.4 239.2-14.7 238.08-16 238.08-18.05L238.08-18.05Q238.08-20.9 240.25-22.88 242.43-24.85 246.33-24.85L246.33-24.85Q248.53-24.85 250.43-24.05 252.33-23.25 253.68-22.15L253.68-22.15 251.93-19.8Q250.68-20.7 249.35-21.33 248.03-21.95 246.33-21.95L246.33-21.95Q243.93-21.95 242.78-20.83 241.63-19.7 241.63-18.25L241.63-18.25Q241.63-17.05 242.4-16.28 243.18-15.5 244.43-14.95 245.68-14.4 247.08-13.85L247.08-13.85Q248.88-13.2 250.6-12.38 252.33-11.55 253.48-10.2 254.63-8.85 254.63-6.5L254.63-6.5Q254.63-4.6 253.63-2.98 252.63-1.35 250.68-0.38 248.73 0.6 245.93 0.6Z" opacity="1" transform="matrix(1,0,0,1,0,0)" fill="#8789fe" class="wordmark-text-0" data-fill-palette-color="primary" id="text-0"></path></svg></g></svg></g></svg></g></svg></g></svg></g></svg></g></svg></g></svg></g><defs></defs></svg><rect width="320" height="360" fill="none" stroke="none" visibility="hidden"></rect></g></svg></g></svg>